<svg xmlns="http://www.w3.org/2000/svg" width="40" height="40" viewBox="0 0 40 40">
  <defs>
    <style>
      .cls-1 {
        fill: #fff;
      }

      .cls-2 {
        fill: #00acee;
      }
    </style>
  </defs>
  <g id="icon-twitter" transform="translate(9673 4516)">
    <circle id="Elipse_51" data-name="Elipse 51" class="cls-1" cx="20" cy="20" r="20" transform="translate(-9673 -4516)"/>
    <g id="tw" transform="translate(-9671.824 -4514.824)">
      <path id="Exclusión_3" data-name="Exclusión 3" class="cls-2" d="M18.823,37.646A18.823,18.823,0,0,1,5.514,5.513a18.823,18.823,0,0,1,26.62,26.62A18.7,18.7,0,0,1,18.823,37.646ZM11.256,23.638h0a10.33,10.33,0,0,0,4.989,1.33c4.358,0,8.771-3.175,8.771-9.242a3.051,3.051,0,0,0-.056-.571,5.3,5.3,0,0,0,1.432-2.524,7.513,7.513,0,0,1-2.161,1.053,3.082,3.082,0,0,0-5.407,2.064v.688h-.191a7.341,7.341,0,0,1-6-3.119,8.554,8.554,0,0,0-.6,3.44,6.125,6.125,0,0,0,4.042,5.5,7.976,7.976,0,0,1-4.5,1.382C11.47,23.644,11.362,23.642,11.256,23.638Z" transform="translate(0 0)"/>
    </g>
  </g>
</svg>
