<svg xmlns="http://www.w3.org/2000/svg" width="40" height="40" viewBox="0 0 40 40">
  <defs>
    <style>
      .cls-1 {
        fill: #fff;
      }

      .cls-2 {
        fill: #0e76a8;
      }
    </style>
  </defs>
  <g id="icon-linkedin" transform="translate(9672 4481)">
    <circle id="Elipse_50" data-name="Elipse 50" class="cls-1" cx="20" cy="20" r="20" transform="translate(-9672 -4481)"/>
    <g id="in" transform="translate(-9670.824 -4479.824)">
      <path id="Exclusión_4" data-name="Exclusión 4" class="cls-2" d="M18.823,37.646A18.823,18.823,0,0,1,5.514,5.513a18.823,18.823,0,0,1,26.62,26.62A18.7,18.7,0,0,1,18.823,37.646Zm2.614-18.823a1.309,1.309,0,0,1,1.308,1.308v4.575h2.615V20.131a3.922,3.922,0,1,0-7.844,0v4.575h2.615V20.131A1.308,1.308,0,0,1,21.437,18.823Zm-9.149-1.961v7.844H14.9V16.862Zm1.307-4.575A1.307,1.307,0,1,0,14.9,13.594,1.308,1.308,0,0,0,13.594,12.288Z" transform="translate(0 0)"/>
    </g>
  </g>
</svg>
