<svg xmlns="http://www.w3.org/2000/svg" width="140.582" height="68.692" viewBox="0 0 140.582 68.692">
  <defs>
    <style>
      .cls-1, .cls-2 {
        fill: #333;
      }

      .cls-1, .cls-5 {
        stroke: rgba(0,0,0,0);
      }

      .cls-3, .cls-5 {
        fill: #076aae;
      }

      .cls-4 {
        fill: #309fd0;
      }

      .cls-5 {
        stroke-miterlimit: 10;
      }
    </style>
  </defs>
  <g id="saavi-power-mobile-solitions-logo" transform="translate(12871 7205)">
    <g id="Grupo_597" data-name="Grupo 597" transform="translate(-12823.481 -7186.357)">
      <path id="Trazado_335" data-name="Trazado 335" class="cls-1" d="M325.833,56.563l.461-2.65a43.192,43.192,0,0,0,7.95.845,12.581,12.581,0,0,0,2.689-.269,9.159,9.159,0,0,0,2.323-.845,4.124,4.124,0,0,0,1.709-1.671,5.3,5.3,0,0,0,.614-2.631,7.074,7.074,0,0,0-.1-1.228,2.846,2.846,0,0,0-.365-.979q-.269-.441-.5-.749a2.294,2.294,0,0,0-.787-.595q-.558-.288-.941-.442a9.94,9.94,0,0,0-1.27-.36l-1.412-.331-1.657-.386a1.058,1.058,0,0,0-.231-.039q-5.108-1.152-6.836-2.631t-1.729-4.7a7.4,7.4,0,0,1,.73-3.418,5.279,5.279,0,0,1,2.093-2.209,9.774,9.774,0,0,1,3.053-1.114,20.866,20.866,0,0,1,3.918-.326,32.638,32.638,0,0,1,8.258,1.114l-.5,2.573a30.916,30.916,0,0,0-7.835-1.114,10.082,10.082,0,0,0-4.878.939,3.525,3.525,0,0,0-1.652,3.354,3.236,3.236,0,0,0,1.326,2.913,19.706,19.706,0,0,0,5.746,1.84l2.435.574q.911.213,1.966.561a7.272,7.272,0,0,1,1.649.734,9.532,9.532,0,0,1,1.207.946,3.468,3.468,0,0,1,.9,1.274,8.609,8.609,0,0,1,.46,1.679,12.606,12.606,0,0,1,.172,2.2,8.286,8.286,0,0,1-.6,3.227,6.347,6.347,0,0,1-1.574,2.3,8.268,8.268,0,0,1-2.343,1.46,11.541,11.541,0,0,1-2.765.787,20.036,20.036,0,0,1-2.977.211A57.684,57.684,0,0,1,325.833,56.563Z" transform="translate(-325.756 -29.832)"/>
      <path id="Trazado_336" data-name="Trazado 336" class="cls-1" d="M353.206,41.629l-.346-2.189a39.75,39.75,0,0,1,7.413-.961q8.027,0,8.027,6.722V58.028h-2.381l-.154-1.728a20.9,20.9,0,0,1-8.142,2.073,7.95,7.95,0,0,1-3.227-.595,4.619,4.619,0,0,1-2.151-2,7.053,7.053,0,0,1-.806-3.553,5.043,5.043,0,0,1,2.074-4.532q2.073-1.383,6.836-1.382,2.073,0,4.839.269V45.2q0-4.379-5.608-4.379A43.449,43.449,0,0,0,353.206,41.629Zm11.982,12.521V48.388q-2.764-.268-4.685-.269a17.352,17.352,0,0,0-3.112.231,3.984,3.984,0,0,0-1.861.768,2.766,2.766,0,0,0-.865,1.21,5.522,5.522,0,0,0-.231,1.748q0,3.956,3.879,3.955A17.3,17.3,0,0,0,365.188,54.149Z" transform="translate(-328.741 -30.837)"/>
      <path id="Trazado_337" data-name="Trazado 337" class="cls-1" d="M377.5,41.629l-.346-2.189a39.732,39.732,0,0,1,7.413-.961q8.027,0,8.027,6.722V58.028h-2.382l-.154-1.728a20.908,20.908,0,0,1-8.142,2.073,7.949,7.949,0,0,1-3.226-.595,4.615,4.615,0,0,1-2.151-2,7.044,7.044,0,0,1-.806-3.553,5.041,5.041,0,0,1,2.074-4.532q2.073-1.383,6.836-1.382,2.075,0,4.84.269V45.2q0-4.379-5.608-4.379A43.456,43.456,0,0,0,377.5,41.629Zm11.983,12.521V48.388q-2.767-.268-4.686-.269a17.328,17.328,0,0,0-3.111.231,3.987,3.987,0,0,0-1.863.768,2.771,2.771,0,0,0-.864,1.21,5.5,5.5,0,0,0-.231,1.748q0,3.956,3.88,3.955A17.306,17.306,0,0,0,389.482,54.149Z" transform="translate(-331.564 -30.837)"/>
      <path id="Trazado_338" data-name="Trazado 338" class="cls-1" d="M409.9,58.074h-3.84l-7.682-19.2h3.188l6.411,16.649,6.378-16.649h3.187Z" transform="translate(-334.195 -30.882)"/>
      <path id="Trazado_339" data-name="Trazado 339" class="cls-1" d="M427.581,34.353h-3.264V30.4h3.264ZM427.5,57.089h-3.111v-19.2H427.5Z" transform="translate(-337.21 -29.898)"/>
    </g>
    <rect id="Rectángulo_266" data-name="Rectángulo 266" class="cls-2" width="1.322" height="64.098" transform="translate(-12834.331 -7205)"/>
    <g id="Grupo_599" data-name="Grupo 599" transform="translate(-12871 -7204.982)">
      <path id="Trazado_347" data-name="Trazado 347" class="cls-3" d="M295.64,9.862l-17.813,7.556A8.755,8.755,0,0,0,272.43,26a9.589,9.589,0,0,0,1.15,4.22,9.419,9.419,0,0,0,1.951,2.484,9.9,9.9,0,0,0,2.951,1.846l13.69,5.54h.005c4.01,1.624,6.823,4.467,7.03,6.857.019-.315.023-.634.011-.957a9.537,9.537,0,0,0-6.052-8.551L279.477,31.9a6.723,6.723,0,0,1-2.207-1.426,6.54,6.54,0,0,1-1.577-2.456,6.768,6.768,0,0,1-.4-2.028,6.066,6.066,0,0,1,3.731-5.936l17.366-7.366A8.249,8.249,0,0,1,291.42,21.1l-1.12.475L278.225,26.7a2.95,2.95,0,0,0,3.8,1.538l10.591-4.493a10.923,10.923,0,0,0,6.188-6.89,11.461,11.461,0,0,0-.561-8.092Z" transform="translate(-272.04 -8.758)"/>
      <path id="Trazado_348" data-name="Trazado 348" class="cls-4" d="M275.642,75.119l17.812-7.556a8.753,8.753,0,0,0,5.4-8.585,9.577,9.577,0,0,0-1.149-4.22,9.418,9.418,0,0,0-1.951-2.484,9.907,9.907,0,0,0-2.951-1.846l-13.691-5.54h0c-4.01-1.624-6.824-4.467-7.03-6.857-.019.315-.023.634-.011.957a9.536,9.536,0,0,0,6.052,8.551l13.688,5.54a6.732,6.732,0,0,1,2.207,1.426,6.537,6.537,0,0,1,1.577,2.457,6.758,6.758,0,0,1,.4,2.027,6.067,6.067,0,0,1-3.732,5.936l-17.366,7.366a8.247,8.247,0,0,1,4.971-8.406l1.119-.475,12.075-5.122a2.948,2.948,0,0,0-3.8-1.537l-10.592,4.492a10.844,10.844,0,0,0-5.689,5.562,11,11,0,0,0-.5,1.328,11.465,11.465,0,0,0,.562,8.092Z" transform="translate(-271.989 -12.16)"/>
    </g>
    <path id="Trazado_366" data-name="Trazado 366" class="cls-5" d="M-57.952-1.818V-3.86h1.37a3.708,3.708,0,0,0,1.17-.166,1.891,1.891,0,0,0,.774-.451,1.873,1.873,0,0,0,.408-.621,1.951,1.951,0,0,0,.132-.719,2.159,2.159,0,0,0-.111-.711,1.881,1.881,0,0,0-.37-.617,1.685,1.685,0,0,0-.766-.464,3.979,3.979,0,0,0-1.23-.166h-2.408v5.957Zm1.413-5q1.37,0,1.37.987,0,1-1.43,1h-1.353V-6.813ZM-54-4.039a2.2,2.2,0,0,0,.668,1.647,2.332,2.332,0,0,0,1.7.651,2.34,2.34,0,0,0,1.711-.651,2.209,2.209,0,0,0,.664-1.647,2.22,2.22,0,0,0-.664-1.655,2.34,2.34,0,0,0-1.711-.651,2.325,2.325,0,0,0-1.706.651A2.227,2.227,0,0,0-54-4.039Zm1,0a1.38,1.38,0,0,1,.383-1.021,1.325,1.325,0,0,1,.979-.383,1.335,1.335,0,0,1,.979.387,1.367,1.367,0,0,1,.391,1.017,1.378,1.378,0,0,1-.379,1.013,1.333,1.333,0,0,1-.991.383,1.3,1.3,0,0,1-.983-.4A1.388,1.388,0,0,1-53-4.039Zm10.467-2.2h-.987l-.86,2.808-1.055-2.808h-.732l-1.038,2.8-.919-2.8h-1l1.481,4.425h.757l1.081-2.876,1.072,2.876h.774Zm3.71,3.013A1.393,1.393,0,0,1-40-2.643a1.564,1.564,0,0,1-.945-.272,1.073,1.073,0,0,1-.434-.783H-38.1a5.25,5.25,0,0,0,.051-.621,1.93,1.93,0,0,0-.587-1.468,2.076,2.076,0,0,0-1.489-.557A2.168,2.168,0,0,0-41.8-5.7a2.344,2.344,0,0,0-.6,1.659,2.211,2.211,0,0,0,.651,1.672,2.383,2.383,0,0,0,1.723.625,2.128,2.128,0,0,0,1.8-.9Zm-1.345-2.238a1.167,1.167,0,0,1,.766.238,1.026,1.026,0,0,1,.349.689h-2.323a1.137,1.137,0,0,1,.408-.681A1.258,1.258,0,0,1-40.166-5.468Zm2.817,3.651h.97v-3a.889.889,0,0,1,.26-.46.617.617,0,0,1,.421-.162.488.488,0,0,1,.443.2l.553-.706a1.047,1.047,0,0,0-.877-.391,1.113,1.113,0,0,0-.481.111.645.645,0,0,0-.319.281v-.3h-.97Zm5.242,0h1.03V-5.954l1.855,2.374h.264l1.813-2.366v4.127h1.03V-7.775h-.9l-2.051,2.766L-31.2-7.775h-.911Zm6.834-2.221a2.2,2.2,0,0,0,.668,1.647,2.332,2.332,0,0,0,1.7.651A2.34,2.34,0,0,0-21.2-2.392a2.209,2.209,0,0,0,.664-1.647A2.22,2.22,0,0,0-21.2-5.694a2.34,2.34,0,0,0-1.711-.651,2.325,2.325,0,0,0-1.706.651A2.227,2.227,0,0,0-25.274-4.039Zm1,0a1.38,1.38,0,0,1,.383-1.021,1.325,1.325,0,0,1,.979-.383,1.335,1.335,0,0,1,.979.387,1.367,1.367,0,0,1,.391,1.017,1.378,1.378,0,0,1-.379,1.013,1.333,1.333,0,0,1-.991.383,1.3,1.3,0,0,1-.983-.4A1.388,1.388,0,0,1-24.27-4.039Zm4.434,1.523a2.271,2.271,0,0,0,.885.574,3.212,3.212,0,0,0,1.132.2,2.249,2.249,0,0,0,1.676-.638,2.352,2.352,0,0,0,.63-1.728,2.36,2.36,0,0,0-.545-1.621,1.925,1.925,0,0,0-1.523-.617,1.7,1.7,0,0,0-1.285.5V-8.03h-.97Zm2.076-2.927a1.17,1.17,0,0,1,.906.366,1.453,1.453,0,0,1,.336,1.021,1.439,1.439,0,0,1-.357,1.042,1.221,1.221,0,0,1-.919.37,1.365,1.365,0,0,1-1.072-.408V-4.762a1.331,1.331,0,0,1,.46-.489A1.173,1.173,0,0,1-17.76-5.443Zm3.03,3.625h.97V-6.243h-.97Zm-.085-5.693a.5.5,0,0,0,.157.379.576.576,0,0,0,.413.149.568.568,0,0,0,.4-.149.492.492,0,0,0,.162-.379.474.474,0,0,0-.162-.362.568.568,0,0,0-.4-.149.594.594,0,0,0-.4.145A.465.465,0,0,0-14.815-7.511Zm2.034,5.693h.97V-8.03h-.97ZM-7.539-3.23a1.393,1.393,0,0,1-1.183.587,1.564,1.564,0,0,1-.945-.272A1.073,1.073,0,0,1-10.1-3.7h3.285a5.25,5.25,0,0,0,.051-.621,1.93,1.93,0,0,0-.587-1.468,2.076,2.076,0,0,0-1.489-.557,2.168,2.168,0,0,0-1.672.647,2.344,2.344,0,0,0-.6,1.659,2.211,2.211,0,0,0,.651,1.672,2.383,2.383,0,0,0,1.723.625,2.128,2.128,0,0,0,1.8-.9ZM-8.884-5.468a1.167,1.167,0,0,1,.766.238,1.026,1.026,0,0,1,.349.689h-2.323a1.137,1.137,0,0,1,.408-.681A1.258,1.258,0,0,1-8.884-5.468ZM-.459-3.435a.6.6,0,0,1-.3.532,1.538,1.538,0,0,1-.834.191,2.768,2.768,0,0,1-2.1-.851l-.613.723a2.925,2.925,0,0,0,1.115.779,3.779,3.779,0,0,0,1.506.311A2.647,2.647,0,0,0-.059-2.243,1.515,1.515,0,0,0,.6-3.511a1.408,1.408,0,0,0-.272-.872,1.587,1.587,0,0,0-.681-.528q-.408-.166-.885-.306t-.885-.23A1.965,1.965,0,0,1-2.8-5.72a.543.543,0,0,1-.272-.464.559.559,0,0,1,.357-.523,2.009,2.009,0,0,1,.885-.174,2.686,2.686,0,0,1,1.77.621L.5-6.992A3.081,3.081,0,0,0-1.8-7.843a2.731,2.731,0,0,0-1.672.489,1.449,1.449,0,0,0-.66,1.2,1.383,1.383,0,0,0,.2.762,1.454,1.454,0,0,0,.528.5,3.9,3.9,0,0,0,.715.3q.391.123.783.213t.715.2a1.43,1.43,0,0,1,.528.294A.6.6,0,0,1-.459-3.435Zm1.566-.6a2.2,2.2,0,0,0,.668,1.647,2.332,2.332,0,0,0,1.7.651,2.34,2.34,0,0,0,1.711-.651,2.209,2.209,0,0,0,.664-1.647,2.22,2.22,0,0,0-.664-1.655,2.34,2.34,0,0,0-1.711-.651,2.325,2.325,0,0,0-1.706.651A2.227,2.227,0,0,0,1.107-4.039Zm1,0A1.38,1.38,0,0,1,2.494-5.06a1.325,1.325,0,0,1,.979-.383,1.335,1.335,0,0,1,.979.387,1.367,1.367,0,0,1,.391,1.017,1.377,1.377,0,0,1-.379,1.013,1.333,1.333,0,0,1-.991.383,1.3,1.3,0,0,1-.983-.4A1.388,1.388,0,0,1,2.111-4.039ZM6.545-1.818h.97V-8.03h-.97Zm5.889-4.451h-.97v2.859a1.221,1.221,0,0,1-1.14.766q-.962,0-.962-1.174V-6.268h-.97v2.544a2.126,2.126,0,0,0,.455,1.5,1.81,1.81,0,0,0,1.383.485,1.58,1.58,0,0,0,1.234-.545v.468h.97Zm.477.928h.766v1.983a1.691,1.691,0,0,0,.374,1.183,1.317,1.317,0,0,0,1.021.408,1.607,1.607,0,0,0,.8-.2,1.426,1.426,0,0,0,.549-.528l-.579-.545a.808.808,0,0,1-.63.374.472.472,0,0,1-.438-.217,1.524,1.524,0,0,1-.132-.745V-5.341h1.43v-.9h-1.43v-.911h-.97v.911H12.91Zm4.025,3.523h.97V-6.243h-.97Zm-.085-5.693a.5.5,0,0,0,.157.379.576.576,0,0,0,.413.149.568.568,0,0,0,.4-.149.492.492,0,0,0,.162-.379.474.474,0,0,0-.162-.362.568.568,0,0,0-.4-.149.594.594,0,0,0-.4.145A.465.465,0,0,0,16.851-7.511Zm1.83,3.472a2.2,2.2,0,0,0,.668,1.647,2.332,2.332,0,0,0,1.7.651,2.34,2.34,0,0,0,1.711-.651,2.209,2.209,0,0,0,.664-1.647,2.22,2.22,0,0,0-.664-1.655,2.34,2.34,0,0,0-1.711-.651,2.325,2.325,0,0,0-1.706.651A2.227,2.227,0,0,0,18.68-4.039Zm1,0a1.38,1.38,0,0,1,.383-1.021,1.325,1.325,0,0,1,.979-.383,1.335,1.335,0,0,1,.979.387,1.367,1.367,0,0,1,.391,1.017,1.378,1.378,0,0,1-.379,1.013,1.333,1.333,0,0,1-.991.383,1.3,1.3,0,0,1-.983-.4A1.388,1.388,0,0,1,19.684-4.039Zm4.434,2.221h.97V-4.686a1.215,1.215,0,0,1,.434-.549,1.112,1.112,0,0,1,.647-.2,1.084,1.084,0,0,1,.825.281,1.3,1.3,0,0,1,.264.911v2.425h.97v-2.5q0-2.017-1.779-2.017a1.858,1.858,0,0,0-1.362.494v-.4h-.97Zm7.565-1.259a.347.347,0,0,1-.208.328,1.125,1.125,0,0,1-.515.106,1.753,1.753,0,0,1-.808-.2,1.407,1.407,0,0,1-.57-.494l-.766.528a1.879,1.879,0,0,0,.791.766,2.583,2.583,0,0,0,1.259.3,2.327,2.327,0,0,0,1.3-.34,1.124,1.124,0,0,0,.519-1,1.068,1.068,0,0,0-.2-.643,1.318,1.318,0,0,0-.5-.421,6.438,6.438,0,0,0-.643-.268,6.4,6.4,0,0,0-.642-.2,2.015,2.015,0,0,1-.5-.183q-.2-.111-.2-.247,0-.4.655-.4a1.608,1.608,0,0,1,1.285.511l.664-.63a1.785,1.785,0,0,0-.723-.553,2.489,2.489,0,0,0-1.064-.23,2.231,2.231,0,0,0-1.336.353A1.131,1.131,0,0,0,29-5.026a1.014,1.014,0,0,0,.277.715,1.7,1.7,0,0,0,.672.443q.4.145.787.251a4.3,4.3,0,0,1,.668.234Q31.683-3.256,31.683-3.077Z" transform="translate(-12763.688 -7143.538)"/>
    <path id="Trazado_367" data-name="Trazado 367" class="cls-1" d="M-284.595-36.819h.345l.464-2.363h-.35l-.027.145a.9.9,0,0,0-.645-.2,1.309,1.309,0,0,0-.645.175,1.436,1.436,0,0,0-.527.529,1.528,1.528,0,0,0-.214.8.969.969,0,0,0,.241.684.858.858,0,0,0,.664.261.884.884,0,0,0,.461-.12.944.944,0,0,0,.3-.266Zm-.6-.327a.62.62,0,0,1-.448-.159.619.619,0,0,1-.166-.468,1.087,1.087,0,0,1,.3-.793.952.952,0,0,1,.7-.311.633.633,0,0,1,.564.227l-.223,1.032A.842.842,0,0,1-285.195-37.147Zm4.94-.568a.454.454,0,0,1-.236.4,1.033,1.033,0,0,1-.559.148,1.213,1.213,0,0,1-.6-.141.982.982,0,0,1-.382-.373l-.3.273a.938.938,0,0,0,.445.452,1.616,1.616,0,0,0,.773.175,1.51,1.51,0,0,0,.916-.277.848.848,0,0,0,.379-.714.618.618,0,0,0-.093-.341.719.719,0,0,0-.243-.234,2,2,0,0,0-.329-.155q-.18-.066-.359-.123t-.329-.118a.692.692,0,0,1-.243-.159.322.322,0,0,1-.093-.23.426.426,0,0,1,.245-.393,1.226,1.226,0,0,1,.6-.134,1.394,1.394,0,0,1,.5.077.92.92,0,0,1,.352.25l.3-.25a1.214,1.214,0,0,0-1.109-.464,1.615,1.615,0,0,0-.927.261.816.816,0,0,0-.386.711.622.622,0,0,0,.175.452,1.075,1.075,0,0,0,.423.266q.248.086.5.157a1.553,1.553,0,0,1,.423.184A.341.341,0,0,1-280.254-37.715Zm2.4.9h.345l.464-2.363h-.35l-.027.145a.9.9,0,0,0-.645-.2,1.309,1.309,0,0,0-.645.175,1.436,1.436,0,0,0-.527.529,1.528,1.528,0,0,0-.214.8.969.969,0,0,0,.241.684.858.858,0,0,0,.664.261.884.884,0,0,0,.461-.12.944.944,0,0,0,.3-.266Zm-.6-.327a.62.62,0,0,1-.448-.159.619.619,0,0,1-.166-.468,1.087,1.087,0,0,1,.3-.793.952.952,0,0,1,.7-.311.634.634,0,0,1,.564.227l-.223,1.032A.842.842,0,0,1-278.45-37.147Zm3.209.327h.345l.464-2.363h-.35l-.027.145a.9.9,0,0,0-.645-.2,1.309,1.309,0,0,0-.645.175,1.436,1.436,0,0,0-.527.529,1.528,1.528,0,0,0-.214.8.969.969,0,0,0,.241.684.858.858,0,0,0,.664.261.884.884,0,0,0,.461-.12.944.944,0,0,0,.3-.266Zm-.6-.327a.62.62,0,0,1-.448-.159.619.619,0,0,1-.166-.468,1.087,1.087,0,0,1,.3-.793.952.952,0,0,1,.7-.311.634.634,0,0,1,.564.227l-.223,1.032A.842.842,0,0,1-275.841-37.147Zm3.941-2.036h-.423l-1.064,1.768-.45-1.768h-.391l.618,2.363h.264Zm-.182,2.363h.368l.436-2.363h-.368Zm.518-3.082a.208.208,0,0,0,.064.157.226.226,0,0,0,.164.061.236.236,0,0,0,.164-.061.2.2,0,0,0,.068-.157.218.218,0,0,0-.068-.159.223.223,0,0,0-.164-.068.219.219,0,0,0-.161.066A.219.219,0,0,0-271.564-39.9Zm1.823,3.082h2.332l.077-.386h-1.918l.2-1.036h1.75l.073-.386h-1.75l.2-.986h1.877l.073-.386h-2.291Zm2.868,0h.368l.286-1.563a1.019,1.019,0,0,1,.357-.352.922.922,0,0,1,.484-.139.4.4,0,0,1,.454.445,3.067,3.067,0,0,1-.041.368l-.259,1.241h.364l.264-1.273a2.232,2.232,0,0,0,.05-.427.694.694,0,0,0-.2-.527.758.758,0,0,0-.545-.186,1.159,1.159,0,0,0-.836.345l.055-.3h-.368Zm4.413-.641a.894.894,0,0,1-.718.323.681.681,0,0,1-.493-.177.655.655,0,0,1-.184-.5v-.068a3.284,3.284,0,0,0,.541.045,1.683,1.683,0,0,0,.923-.22.665.665,0,0,0,.341-.579.529.529,0,0,0-.2-.45.95.95,0,0,0-.582-.155,1.341,1.341,0,0,0-.984.425,1.426,1.426,0,0,0-.42,1.043.969.969,0,0,0,.273.72.975.975,0,0,0,.718.27,1.485,1.485,0,0,0,.568-.114.982.982,0,0,0,.441-.345Zm-.418-1.418a.565.565,0,0,1,.329.08.244.244,0,0,1,.111.207q0,.177-.243.3a1.511,1.511,0,0,1-.689.127,3.643,3.643,0,0,1-.423-.027,1.044,1.044,0,0,1,.364-.5A.9.9,0,0,1-262.879-38.878Zm.982,2.059h.368l.318-1.645a.71.71,0,0,1,.214-.3.454.454,0,0,1,.286-.114.259.259,0,0,1,.245.118l.277-.264a.449.449,0,0,0-.418-.214.657.657,0,0,0-.286.073.517.517,0,0,0-.223.191l.041-.214h-.368Zm4.036-2.363h-.364l-.036.186a.872.872,0,0,0-.659-.236,1.328,1.328,0,0,0-.954.409,1.474,1.474,0,0,0-.418,1.1.967.967,0,0,0,.241.675.867.867,0,0,0,.677.266.887.887,0,0,0,.741-.336l-.027.114a1.191,1.191,0,0,1-.282.586.711.711,0,0,1-.518.182.573.573,0,0,1-.591-.359l-.327.141a.662.662,0,0,0,.3.418,1.008,1.008,0,0,0,.573.164q.991,0,1.214-1.132Zm-1.413,2.045a.613.613,0,0,1-.47-.173.665.665,0,0,1-.161-.473,1.081,1.081,0,0,1,.293-.782.916.916,0,0,1,.68-.3.84.84,0,0,1,.375.077.479.479,0,0,1,.22.2l-.2.986a.957.957,0,0,1-.3.332A.728.728,0,0,1-259.275-37.138Zm1.55.318h.368l.436-2.363h-.368Zm1.5-3.45-.264-.218-.645.727.223.182Zm1.109,3.45h.345l.464-2.363h-.35l-.027.145a.9.9,0,0,0-.645-.2,1.309,1.309,0,0,0-.645.175,1.436,1.436,0,0,0-.527.529,1.528,1.528,0,0,0-.214.8.969.969,0,0,0,.241.684.858.858,0,0,0,.664.261.884.884,0,0,0,.461-.12.945.945,0,0,0,.3-.266Zm-.6-.327a.62.62,0,0,1-.448-.159.619.619,0,0,1-.166-.468,1.087,1.087,0,0,1,.3-.793.952.952,0,0,1,.7-.311.634.634,0,0,1,.564.227l-.223,1.032A.842.842,0,0,1-255.711-37.147Zm4.768-.291a1.155,1.155,0,0,1-.334.234.965.965,0,0,1-.375.066.715.715,0,0,1-.507-.18.64.64,0,0,1-.193-.493,1.078,1.078,0,0,1,.284-.761.909.909,0,0,1,.693-.307.639.639,0,0,1,.582.318l.3-.2a.852.852,0,0,0-.836-.482,1.332,1.332,0,0,0-1,.42,1.451,1.451,0,0,0-.4,1.048.931.931,0,0,0,.3.718,1.063,1.063,0,0,0,.75.273,1.359,1.359,0,0,0,.532-.1,1.3,1.3,0,0,0,.454-.348Zm.482-.3a.892.892,0,0,0,.291.686,1.082,1.082,0,0,0,.764.268,1.313,1.313,0,0,0,.977-.416,1.477,1.477,0,0,0,.4-1.075.936.936,0,0,0-.277-.693,1,1,0,0,0-.736-.275,1.373,1.373,0,0,0-1,.42A1.459,1.459,0,0,0-250.462-37.733Zm.386-.091a1.012,1.012,0,0,1,.309-.75.949.949,0,0,1,.677-.3.687.687,0,0,1,.486.177.643.643,0,0,1,.191.5,1.058,1.058,0,0,1-.291.768.906.906,0,0,1-.668.3.7.7,0,0,1-.516-.189A.673.673,0,0,1-250.076-37.824Zm5.8-.564a1.283,1.283,0,0,0,.027-.25.545.545,0,0,0-.193-.448.769.769,0,0,0-.489-.148,1.03,1.03,0,0,0-.8.368.559.559,0,0,0-.609-.368.938.938,0,0,0-.736.355l.059-.3h-.368l-.45,2.363h.368l.3-1.577a1.087,1.087,0,0,1,.3-.332.7.7,0,0,1,.436-.145.332.332,0,0,1,.3.132.459.459,0,0,1,.048.35l-.3,1.573h.368l.3-1.623a.811.811,0,0,1,.7-.432.373.373,0,0,1,.275.093.329.329,0,0,1,.093.243,1.746,1.746,0,0,1-.023.268l-.286,1.45h.368Zm.077,2.477h.359l.227-1.132a.51.51,0,0,0,.255.193,1.037,1.037,0,0,0,.386.07,1.3,1.3,0,0,0,.968-.434,1.564,1.564,0,0,0,.414-1.125.981.981,0,0,0-.211-.641.815.815,0,0,0-.67-.259.966.966,0,0,0-.791.35l.05-.3h-.364Zm1.623-2.968a.553.553,0,0,1,.457.177.715.715,0,0,1,.143.464,1.094,1.094,0,0,1-.3.784.9.9,0,0,1-.659.316.58.58,0,0,1-.6-.341l.173-.909a1.066,1.066,0,0,1,.327-.348A.788.788,0,0,1-242.576-38.878Zm2.841,2.059h.345l.464-2.363h-.35l-.027.145a.9.9,0,0,0-.645-.2,1.309,1.309,0,0,0-.645.175,1.436,1.436,0,0,0-.527.529,1.528,1.528,0,0,0-.214.8.969.969,0,0,0,.241.684.858.858,0,0,0,.664.261.884.884,0,0,0,.461-.12.945.945,0,0,0,.3-.266Zm-.6-.327a.62.62,0,0,1-.448-.159.619.619,0,0,1-.166-.468,1.087,1.087,0,0,1,.3-.793.952.952,0,0,1,.7-.311.634.634,0,0,1,.564.227l-.223,1.032A.842.842,0,0,1-240.336-37.147Zm1.545.327h.368l.286-1.563a1.019,1.019,0,0,1,.357-.352.922.922,0,0,1,.484-.139.4.4,0,0,1,.454.445,3.063,3.063,0,0,1-.041.368l-.259,1.241h.364l.264-1.273a2.231,2.231,0,0,0,.05-.427.694.694,0,0,0-.2-.527.758.758,0,0,0-.545-.186,1.159,1.159,0,0,0-.836.345l.055-.3h-.368Zm2.327.836a.439.439,0,0,0,.332.118.684.684,0,0,0,.475-.207,3.639,3.639,0,0,0,.552-.784l1.327-2.327h-.418l-1.009,1.8-.55-1.8h-.409l.7,2.254-.1.177a1.981,1.981,0,0,1-.286.4.353.353,0,0,1-.241.12.2.2,0,0,1-.15-.059Z" transform="translate(-12497.645 -7100.943)"/>
  </g>
</svg>
