<svg xmlns="http://www.w3.org/2000/svg" width="328.485" height="160" viewBox="0 0 328.485 160">
  <defs>
    <style>
      .cls-1 {
        fill: #fff;
      }
    </style>
  </defs>
  <g id="saavi-power-mobile-solutions-logo-blanco" transform="translate(11831 5803)">
    <g id="Grupo_715" data-name="Grupo 715" transform="translate(-11831 -5803)">
      <g id="Grupo_597" data-name="Grupo 597" transform="translate(111.493 43.742)">
        <path id="Trazado_335" data-name="Trazado 335" class="cls-1" d="M325.936,92.552l1.082-6.219a101.342,101.342,0,0,0,18.652,1.982,29.52,29.52,0,0,0,6.308-.63,21.489,21.489,0,0,0,5.452-1.982,9.677,9.677,0,0,0,4.01-3.921,12.426,12.426,0,0,0,1.441-6.173,16.6,16.6,0,0,0-.224-2.88,6.677,6.677,0,0,0-.857-2.3q-.632-1.036-1.172-1.756a5.382,5.382,0,0,0-1.848-1.4q-1.31-.675-2.208-1.037a23.325,23.325,0,0,0-2.98-.844l-3.314-.776q-1.238-.286-3.888-.906a2.483,2.483,0,0,0-.541-.091q-11.985-2.7-16.04-6.173t-4.056-11.038a17.365,17.365,0,0,1,1.713-8.021,12.386,12.386,0,0,1,4.91-5.182,22.934,22.934,0,0,1,7.164-2.613,48.959,48.959,0,0,1,9.193-.765,76.579,76.579,0,0,1,19.376,2.613l-1.174,6.036a72.539,72.539,0,0,0-18.383-2.613q-7.568,0-11.445,2.2t-3.876,7.87q0,4.768,3.111,6.835t13.481,4.317l5.713,1.346q2.137.5,4.612,1.317a17.06,17.06,0,0,1,3.87,1.721,22.365,22.365,0,0,1,2.833,2.219,8.136,8.136,0,0,1,2.115,2.99,20.2,20.2,0,0,1,1.08,3.94,29.58,29.58,0,0,1,.4,5.161,19.441,19.441,0,0,1-1.4,7.571,14.892,14.892,0,0,1-3.693,5.406,19.4,19.4,0,0,1-5.5,3.426,27.077,27.077,0,0,1-6.488,1.848,47.01,47.01,0,0,1-6.984.5A135.343,135.343,0,0,1,325.936,92.552Z" transform="translate(-325.756 -29.832)"/>
        <path id="Trazado_336" data-name="Trazado 336" class="cls-1" d="M355.584,45.87l-.813-5.136a93.267,93.267,0,0,1,17.394-2.254Q391,38.479,391,54.251v30.1h-5.586l-.361-4.054q-11.083,4.865-19.1,4.865a18.654,18.654,0,0,1-7.571-1.4,10.837,10.837,0,0,1-5.047-4.686,16.549,16.549,0,0,1-1.891-8.336q0-7.387,4.867-10.634t16.04-3.243q4.865,0,11.353.63V54.251q0-10.274-13.157-10.275Q366.305,43.976,355.584,45.87ZM383.7,75.247V61.729q-6.485-.628-10.992-.63a40.712,40.712,0,0,0-7.3.541,9.348,9.348,0,0,0-4.367,1.8,6.49,6.49,0,0,0-2.03,2.839,12.955,12.955,0,0,0-.541,4.1q0,9.282,9.1,9.28Q374.059,79.662,383.7,75.247Z" transform="translate(-298.181 -20.548)"/>
        <path id="Trazado_337" data-name="Trazado 337" class="cls-1" d="M379.877,45.87l-.813-5.136a93.226,93.226,0,0,1,17.394-2.254q18.834,0,18.835,15.772v30.1H409.7l-.361-4.054q-11.086,4.865-19.1,4.865a18.65,18.65,0,0,1-7.569-1.4,10.828,10.828,0,0,1-5.047-4.686,16.527,16.527,0,0,1-1.891-8.336q0-7.387,4.867-10.634t16.04-3.243q4.868,0,11.355.63V54.251q0-10.274-13.157-10.275Q390.6,43.976,379.877,45.87Zm28.117,29.378V61.729Q401.5,61.1,397,61.1a40.655,40.655,0,0,0-7.3.541,9.355,9.355,0,0,0-4.371,1.8,6.5,6.5,0,0,0-2.028,2.839,12.9,12.9,0,0,0-.541,4.1q0,9.282,9.1,9.28Q398.351,79.662,407.994,75.247Z" transform="translate(-272.099 -20.548)"/>
        <path id="Trazado_338" data-name="Trazado 338" class="cls-1" d="M425.407,83.927H416.4L398.373,38.871h7.48L420.9,77.935l14.966-39.064h7.478Z" transform="translate(-247.79 -20.127)"/>
        <path id="Trazado_339" data-name="Trazado 339" class="cls-1" d="M431.975,39.68h-7.658V30.4h7.658Zm-.18,53.347h-7.3V47.97h7.3Z" transform="translate(-219.935 -29.226)"/>
      </g>
      <rect id="Rectángulo_266" data-name="Rectángulo 266" class="cls-1" width="3.101" height="150.396" transform="translate(86.037)"/>
      <g id="Grupo_599" data-name="Grupo 599" transform="translate(0 0.041)">
        <path id="Trazado_347" data-name="Trazado 347" class="cls-1" d="M326.9,11.348,285.1,29.076A20.542,20.542,0,0,0,272.44,49.219a22.5,22.5,0,0,0,2.7,9.9,22.1,22.1,0,0,0,4.577,5.829,23.22,23.22,0,0,0,6.924,4.332l32.121,13,.012,0c9.408,3.811,16.009,10.48,16.494,16.09.044-.738.054-1.487.027-2.246a22.376,22.376,0,0,0-14.2-20.063l-32.117-13a15.774,15.774,0,0,1-5.178-3.345,15.345,15.345,0,0,1-3.7-5.763,15.88,15.88,0,0,1-.939-4.759,14.233,14.233,0,0,1,8.755-13.929L328.661,17.99A19.354,19.354,0,0,1,317,37.715l-2.627,1.114L286.037,50.845a6.922,6.922,0,0,0,8.915,3.608L319.8,43.911a25.629,25.629,0,0,0,14.52-16.166,26.89,26.89,0,0,0-1.317-18.986Z" transform="translate(-271.524 -8.758)"/>
        <path id="Trazado_348" data-name="Trazado 348" class="cls-1" d="M280.559,125.054l41.792-17.728a20.536,20.536,0,0,0,12.664-20.144,22.47,22.47,0,0,0-2.7-9.9,22.1,22.1,0,0,0-4.577-5.829,23.244,23.244,0,0,0-6.924-4.332l-32.123-13-.01,0c-9.408-3.811-16.011-10.48-16.494-16.09-.043.738-.054,1.487-.027,2.246a22.374,22.374,0,0,0,14.2,20.063l32.117,13a15.8,15.8,0,0,1,5.178,3.345,15.339,15.339,0,0,1,3.7,5.765A15.86,15.86,0,0,1,328.3,87.2a14.235,14.235,0,0,1-8.757,13.929L278.8,118.412A19.35,19.35,0,0,1,290.461,98.69l2.625-1.116,28.332-12.017a6.917,6.917,0,0,0-8.913-3.606l-24.853,10.54A25.445,25.445,0,0,0,274.3,105.541a25.828,25.828,0,0,0-1.172,3.117,26.9,26.9,0,0,0,1.319,18.986Z" transform="translate(-271.989 22.669)"/>
      </g>
      <path id="Trazado_366" data-name="Trazado 366" class="cls-1" d="M-56.566,6.546V1.754h3.215a8.7,8.7,0,0,0,2.745-.389A4.436,4.436,0,0,0-48.789.306a4.4,4.4,0,0,0,.958-1.458,4.577,4.577,0,0,0,.309-1.687,5.066,5.066,0,0,0-.26-1.667,4.414,4.414,0,0,0-.869-1.448,3.955,3.955,0,0,0-1.8-1.088,9.337,9.337,0,0,0-2.885-.389h-5.651V6.546Zm3.315-11.721q3.215,0,3.215,2.316,0,2.356-3.354,2.356h-3.175V-5.175Zm5.95,6.509A5.167,5.167,0,0,0-45.734,5.2,5.473,5.473,0,0,0-41.75,6.726,5.49,5.49,0,0,0-37.737,5.2a5.184,5.184,0,0,0,1.557-3.864,5.208,5.208,0,0,0-1.557-3.884A5.49,5.49,0,0,0-41.75-4.076a5.456,5.456,0,0,0-4,1.527A5.225,5.225,0,0,0-47.3,1.335Zm2.356,0a3.238,3.238,0,0,1,.9-2.4,3.11,3.11,0,0,1,2.3-.9,3.133,3.133,0,0,1,2.3.909,3.207,3.207,0,0,1,.918,2.386,3.232,3.232,0,0,1-.889,2.376,3.127,3.127,0,0,1-2.326.9,3.049,3.049,0,0,1-2.306-.928A3.257,3.257,0,0,1-44.945,1.335Zm24.56-5.172H-22.7l-2.017,6.589-2.476-6.589h-1.717l-2.436,6.569L-33.5-3.837H-35.86l3.474,10.383h1.777L-28.073-.2l2.516,6.749h1.817Zm8.706,7.068a3.267,3.267,0,0,1-2.775,1.378,3.671,3.671,0,0,1-2.216-.639A2.517,2.517,0,0,1-17.69,2.133h7.707A12.318,12.318,0,0,0-9.863.676,4.529,4.529,0,0,0-11.24-2.769a4.872,4.872,0,0,0-3.494-1.308,5.087,5.087,0,0,0-3.924,1.518,5.5,5.5,0,0,0-1.408,3.894,5.188,5.188,0,0,0,1.527,3.924A5.591,5.591,0,0,0-14.5,6.726a4.993,4.993,0,0,0,4.213-2.117ZM-14.835-2.02a2.737,2.737,0,0,1,1.8.559A2.407,2.407,0,0,1-12.219.157H-17.67a2.667,2.667,0,0,1,.958-1.6A2.951,2.951,0,0,1-14.835-2.02Zm6.609,8.566h2.276V-.482A2.087,2.087,0,0,1-5.34-1.561a1.449,1.449,0,0,1,.988-.379,1.145,1.145,0,0,1,1.038.459l1.3-1.657a2.458,2.458,0,0,0-2.057-.918A2.612,2.612,0,0,0-5.2-3.8a1.513,1.513,0,0,0-.749.659v-.7H-8.225Zm12.3,0H6.49v-9.7l4.353,5.571h.619l4.253-5.551V6.546h2.416V-7.431H16.015L11.2-.942,6.211-7.431H4.074ZM20.108,1.335A5.167,5.167,0,0,0,21.675,5.2a5.473,5.473,0,0,0,3.983,1.527A5.49,5.49,0,0,0,29.672,5.2,5.184,5.184,0,0,0,31.23,1.335a5.208,5.208,0,0,0-1.557-3.884,5.49,5.49,0,0,0-4.013-1.527,5.456,5.456,0,0,0-4,1.527A5.225,5.225,0,0,0,20.108,1.335Zm2.356,0a3.238,3.238,0,0,1,.9-2.4,3.11,3.11,0,0,1,2.3-.9,3.133,3.133,0,0,1,2.3.909,3.207,3.207,0,0,1,.918,2.386,3.232,3.232,0,0,1-.889,2.376,3.127,3.127,0,0,1-2.326.9,3.049,3.049,0,0,1-2.306-.928A3.257,3.257,0,0,1,22.464,1.335Zm10.4,3.574a5.329,5.329,0,0,0,2.077,1.348,7.536,7.536,0,0,0,2.656.469,5.277,5.277,0,0,0,3.934-1.5A5.519,5.519,0,0,0,43.01,1.175a5.536,5.536,0,0,0-1.278-3.8,4.518,4.518,0,0,0-3.574-1.448A4,4,0,0,0,35.143-2.9V-8.03H32.867ZM37.739-1.96a2.746,2.746,0,0,1,2.126.859,3.41,3.41,0,0,1,.789,2.4,3.377,3.377,0,0,1-.839,2.446,2.866,2.866,0,0,1-2.156.869,3.2,3.2,0,0,1-2.516-.958V-.363a3.122,3.122,0,0,1,1.078-1.148A2.753,2.753,0,0,1,37.739-1.96Zm7.108,8.506h2.276V-3.837H44.847Zm-.2-13.358a1.17,1.17,0,0,0,.369.889,1.351,1.351,0,0,0,.968.349,1.333,1.333,0,0,0,.938-.349,1.155,1.155,0,0,0,.379-.889,1.111,1.111,0,0,0-.379-.849,1.333,1.333,0,0,0-.938-.349,1.393,1.393,0,0,0-.948.339A1.09,1.09,0,0,0,44.648-6.812ZM49.42,6.546H51.7V-8.03H49.42Zm12.3-3.315a3.267,3.267,0,0,1-2.775,1.378,3.671,3.671,0,0,1-2.216-.639A2.517,2.517,0,0,1,55.71,2.133h7.707a12.319,12.319,0,0,0,.12-1.458,4.53,4.53,0,0,0-1.378-3.444,4.872,4.872,0,0,0-3.494-1.308,5.087,5.087,0,0,0-3.924,1.518,5.5,5.5,0,0,0-1.408,3.894,5.188,5.188,0,0,0,1.527,3.924A5.591,5.591,0,0,0,58.9,6.726a4.993,4.993,0,0,0,4.213-2.117ZM58.565-2.02a2.738,2.738,0,0,1,1.8.559A2.407,2.407,0,0,1,61.181.157H55.73a2.667,2.667,0,0,1,.958-1.6A2.951,2.951,0,0,1,58.565-2.02ZM78.332,2.752A1.408,1.408,0,0,1,77.634,4a3.608,3.608,0,0,1-1.957.449,6.494,6.494,0,0,1-4.932-2l-1.438,1.7a6.862,6.862,0,0,0,2.616,1.827,8.867,8.867,0,0,0,3.534.729,6.212,6.212,0,0,0,3.814-1.158,3.555,3.555,0,0,0,1.557-2.975A3.3,3.3,0,0,0,80.189.526a3.725,3.725,0,0,0-1.6-1.238q-.958-.389-2.077-.719T74.439-1.97a4.611,4.611,0,0,1-1.6-.639A1.274,1.274,0,0,1,72.2-3.7a1.311,1.311,0,0,1,.839-1.228,4.713,4.713,0,0,1,2.077-.409,6.3,6.3,0,0,1,4.153,1.458l1.318-1.717a7.229,7.229,0,0,0-5.411-2,6.408,6.408,0,0,0-3.924,1.148,3.4,3.4,0,0,0-1.547,2.805,3.244,3.244,0,0,0,.479,1.787A3.411,3.411,0,0,0,71.424-.682,9.138,9.138,0,0,0,73.1.027q.919.29,1.837.5t1.677.459a3.355,3.355,0,0,1,1.238.689A1.406,1.406,0,0,1,78.332,2.752Zm3.674-1.418A5.167,5.167,0,0,0,83.574,5.2a5.472,5.472,0,0,0,3.983,1.527A5.49,5.49,0,0,0,91.571,5.2a5.184,5.184,0,0,0,1.557-3.864,5.208,5.208,0,0,0-1.557-3.884,5.49,5.49,0,0,0-4.013-1.527,5.456,5.456,0,0,0-4,1.527A5.225,5.225,0,0,0,82.006,1.335Zm2.356,0a3.238,3.238,0,0,1,.9-2.4,3.11,3.11,0,0,1,2.3-.9,3.133,3.133,0,0,1,2.3.909,3.207,3.207,0,0,1,.918,2.386,3.232,3.232,0,0,1-.889,2.376,3.127,3.127,0,0,1-2.326.9,3.049,3.049,0,0,1-2.306-.928A3.257,3.257,0,0,1,84.363,1.335Zm10.4,5.211h2.276V-8.03H94.765ZM108.583-3.9h-2.276V2.812a2.865,2.865,0,0,1-2.676,1.8q-2.256,0-2.256-2.755V-3.9H99.1v5.97a4.989,4.989,0,0,0,1.068,3.514,4.248,4.248,0,0,0,3.245,1.138,3.706,3.706,0,0,0,2.9-1.278v1.1h2.276ZM109.7-1.72h1.8V2.932a3.968,3.968,0,0,0,.879,2.775,3.089,3.089,0,0,0,2.4.958,3.77,3.77,0,0,0,1.887-.479,3.347,3.347,0,0,0,1.288-1.238L116.59,3.671a1.9,1.9,0,0,1-1.478.879,1.108,1.108,0,0,1-1.028-.509,3.575,3.575,0,0,1-.309-1.747V-1.72h3.354V-3.837h-3.354V-5.973H111.5v2.136h-1.8Zm9.445,8.266h2.276V-3.837h-2.276Zm-.2-13.358a1.17,1.17,0,0,0,.369.889,1.351,1.351,0,0,0,.968.349,1.333,1.333,0,0,0,.938-.349,1.155,1.155,0,0,0,.379-.889,1.111,1.111,0,0,0-.379-.849,1.333,1.333,0,0,0-.938-.349,1.393,1.393,0,0,0-.948.339A1.09,1.09,0,0,0,118.946-6.812Zm4.293,8.147A5.167,5.167,0,0,0,124.806,5.2a5.472,5.472,0,0,0,3.983,1.527A5.49,5.49,0,0,0,132.8,5.2a5.184,5.184,0,0,0,1.557-3.864A5.208,5.208,0,0,0,132.8-2.549a5.49,5.49,0,0,0-4.013-1.527,5.456,5.456,0,0,0-4,1.527A5.225,5.225,0,0,0,123.239,1.335Zm2.356,0a3.238,3.238,0,0,1,.9-2.4,3.11,3.11,0,0,1,2.3-.9,3.133,3.133,0,0,1,2.3.909A3.207,3.207,0,0,1,132,1.335a3.232,3.232,0,0,1-.889,2.376,3.127,3.127,0,0,1-2.326.9,3.049,3.049,0,0,1-2.306-.928A3.257,3.257,0,0,1,125.595,1.335ZM136,6.546h2.276V-.183a2.85,2.85,0,0,1,1.018-1.288,2.608,2.608,0,0,1,1.518-.469,2.544,2.544,0,0,1,1.937.659,3.058,3.058,0,0,1,.619,2.136V6.546h2.276V.676q0-4.732-4.173-4.732A4.359,4.359,0,0,0,138.274-2.9v-.938H136Zm17.751-2.955a.814.814,0,0,1-.489.769,2.639,2.639,0,0,1-1.208.25,4.112,4.112,0,0,1-1.9-.459,3.3,3.3,0,0,1-1.338-1.158l-1.8,1.238a4.408,4.408,0,0,0,1.857,1.8,6.061,6.061,0,0,0,2.955.7,5.461,5.461,0,0,0,3.055-.8A2.637,2.637,0,0,0,156.1,3.571a2.505,2.505,0,0,0-.469-1.508,3.092,3.092,0,0,0-1.168-.988,16.126,16.126,0,0,0-3.015-1.088,4.729,4.729,0,0,1-1.168-.429q-.469-.26-.469-.579,0-.938,1.537-.938a3.773,3.773,0,0,1,3.015,1.2l1.557-1.478a4.187,4.187,0,0,0-1.7-1.3,5.841,5.841,0,0,0-2.5-.539,5.234,5.234,0,0,0-3.135.829,2.653,2.653,0,0,0-1.138,2.266A2.379,2.379,0,0,0,148.108.7a3.985,3.985,0,0,0,1.577,1.038q.928.339,1.847.589a10.089,10.089,0,0,1,1.567.549Q153.748,3.172,153.749,3.591Z" transform="translate(172.381 133.4)"/>
    </g>
    <path id="Trazado_367" data-name="Trazado 367" class="cls-1" d="M-282.441-31.881h.81l1.088-5.545h-.821l-.064.341a2.123,2.123,0,0,0-1.514-.469,3.071,3.071,0,0,0-1.514.411,3.369,3.369,0,0,0-1.237,1.242,3.585,3.585,0,0,0-.5,1.888,2.275,2.275,0,0,0,.565,1.6,2.013,2.013,0,0,0,1.557.613,2.074,2.074,0,0,0,1.082-.283,2.215,2.215,0,0,0,.709-.624Zm-1.408-.768a1.454,1.454,0,0,1-1.05-.373,1.453,1.453,0,0,1-.389-1.1,2.551,2.551,0,0,1,.714-1.861,2.235,2.235,0,0,1,1.642-.73,1.487,1.487,0,0,1,1.322.533l-.523,2.421A1.976,1.976,0,0,1-283.849-32.649Zm11.592-1.333a1.065,1.065,0,0,1-.555.944,2.424,2.424,0,0,1-1.312.347,2.847,2.847,0,0,1-1.418-.331,2.305,2.305,0,0,1-.9-.874l-.7.64A2.2,2.2,0,0,0-276.1-32.2a3.791,3.791,0,0,0,1.813.411,3.543,3.543,0,0,0,2.149-.651,1.989,1.989,0,0,0,.89-1.674,1.45,1.45,0,0,0-.219-.8,1.687,1.687,0,0,0-.571-.549,4.7,4.7,0,0,0-.773-.363q-.421-.155-.842-.288t-.773-.277a1.625,1.625,0,0,1-.571-.373.755.755,0,0,1-.219-.539,1,1,0,0,1,.576-.922,2.877,2.877,0,0,1,1.4-.315,3.271,3.271,0,0,1,1.178.181,2.158,2.158,0,0,1,.826.587l.693-.587a2.849,2.849,0,0,0-2.6-1.088,3.79,3.79,0,0,0-2.175.613,1.915,1.915,0,0,0-.906,1.669,1.458,1.458,0,0,0,.411,1.061,2.522,2.522,0,0,0,.992.624q.581.2,1.162.368a3.643,3.643,0,0,1,.992.432A.8.8,0,0,1-272.257-33.982Zm5.641,2.1h.811l1.088-5.545h-.821l-.064.341a2.123,2.123,0,0,0-1.514-.469,3.071,3.071,0,0,0-1.514.411,3.37,3.37,0,0,0-1.237,1.242,3.586,3.586,0,0,0-.5,1.888,2.274,2.274,0,0,0,.565,1.6,2.012,2.012,0,0,0,1.557.613,2.075,2.075,0,0,0,1.082-.283,2.216,2.216,0,0,0,.709-.624Zm-1.408-.768a1.454,1.454,0,0,1-1.05-.373,1.453,1.453,0,0,1-.389-1.1,2.551,2.551,0,0,1,.715-1.861,2.235,2.235,0,0,1,1.642-.73,1.487,1.487,0,0,1,1.322.533l-.523,2.421A1.976,1.976,0,0,1-268.023-32.649Zm7.529.768h.81l1.088-5.545h-.821l-.064.341A2.123,2.123,0,0,0-261-37.555a3.071,3.071,0,0,0-1.514.411,3.369,3.369,0,0,0-1.237,1.242,3.585,3.585,0,0,0-.5,1.888,2.274,2.274,0,0,0,.565,1.6,2.012,2.012,0,0,0,1.557.613,2.075,2.075,0,0,0,1.082-.283,2.216,2.216,0,0,0,.709-.624Zm-1.408-.768a1.454,1.454,0,0,1-1.05-.373,1.453,1.453,0,0,1-.389-1.1,2.551,2.551,0,0,1,.714-1.861,2.235,2.235,0,0,1,1.642-.73,1.487,1.487,0,0,1,1.322.533l-.523,2.421A1.976,1.976,0,0,1-261.9-32.649Zm9.246-4.777h-.992l-2.5,4.148-1.056-4.148h-.917l1.45,5.545h.618Zm-.427,5.545h.864l1.024-5.545h-.864Zm1.216-7.23a.489.489,0,0,0,.149.368.53.53,0,0,0,.384.144.554.554,0,0,0,.384-.144.473.473,0,0,0,.16-.368.511.511,0,0,0-.16-.373.524.524,0,0,0-.384-.16.515.515,0,0,0-.379.155A.515.515,0,0,0-251.867-39.112Zm4.276,7.23h5.471l.181-.906h-4.5l.469-2.431h4.106l.171-.906H-245.8l.459-2.314h4.4l.171-.906h-5.375Zm6.729,0H-240l.672-3.668a2.39,2.39,0,0,1,.837-.826,2.163,2.163,0,0,1,1.136-.325.933.933,0,0,1,1.066,1.045,7.193,7.193,0,0,1-.1.864l-.608,2.911h.853l.619-2.986a5.238,5.238,0,0,0,.117-1,1.628,1.628,0,0,0-.459-1.237,1.78,1.78,0,0,0-1.28-.437,2.719,2.719,0,0,0-1.962.81l.128-.693h-.864Zm10.355-1.5a2.1,2.1,0,0,1-1.685.757,1.6,1.6,0,0,1-1.157-.416,1.538,1.538,0,0,1-.432-1.162v-.16a7.708,7.708,0,0,0,1.269.107,3.949,3.949,0,0,0,2.165-.517,1.561,1.561,0,0,0,.8-1.36,1.242,1.242,0,0,0-.48-1.056,2.228,2.228,0,0,0-1.365-.363,3.146,3.146,0,0,0-2.309,1,3.346,3.346,0,0,0-.986,2.447,2.274,2.274,0,0,0,.64,1.69,2.289,2.289,0,0,0,1.685.635,3.485,3.485,0,0,0,1.333-.267,2.3,2.3,0,0,0,1.034-.81Zm-.981-3.327a1.327,1.327,0,0,1,.773.187.571.571,0,0,1,.261.485q0,.416-.571.714a3.546,3.546,0,0,1-1.616.3,8.549,8.549,0,0,1-.992-.064,2.451,2.451,0,0,1,.853-1.173A2.108,2.108,0,0,1-231.488-36.712Zm2.3,4.831h.864l.746-3.86a1.665,1.665,0,0,1,.5-.693,1.066,1.066,0,0,1,.672-.267.608.608,0,0,1,.576.277l.65-.619a1.053,1.053,0,0,0-.981-.5,1.541,1.541,0,0,0-.672.171,1.212,1.212,0,0,0-.523.448l.1-.5h-.864Zm9.47-5.545h-.853l-.085.437a2.046,2.046,0,0,0-1.546-.555,3.116,3.116,0,0,0-2.239.96,3.459,3.459,0,0,0-.981,2.591,2.269,2.269,0,0,0,.565,1.584,2.035,2.035,0,0,0,1.589.624,2.082,2.082,0,0,0,1.738-.789l-.064.267a2.794,2.794,0,0,1-.661,1.376,1.667,1.667,0,0,1-1.216.427,1.345,1.345,0,0,1-1.386-.842l-.768.331a1.552,1.552,0,0,0,.7.981,2.365,2.365,0,0,0,1.344.384q2.325,0,2.847-2.655Zm-3.317,4.8a1.437,1.437,0,0,1-1.1-.405,1.56,1.56,0,0,1-.379-1.109,2.536,2.536,0,0,1,.688-1.834,2.15,2.15,0,0,1,1.594-.714,1.972,1.972,0,0,1,.88.181,1.123,1.123,0,0,1,.517.459l-.48,2.314a2.244,2.244,0,0,1-.693.778A1.709,1.709,0,0,1-223.032-32.628Zm3.636.746h.864l1.024-5.545h-.864Zm3.53-8.094-.618-.512L-218-38.781l.523.427Zm2.6,8.094h.81l1.088-5.545h-.821l-.064.341a2.123,2.123,0,0,0-1.514-.469,3.071,3.071,0,0,0-1.514.411,3.37,3.37,0,0,0-1.237,1.242,3.585,3.585,0,0,0-.5,1.888,2.275,2.275,0,0,0,.565,1.6,2.012,2.012,0,0,0,1.557.613,2.074,2.074,0,0,0,1.082-.283,2.216,2.216,0,0,0,.709-.624Zm-1.408-.768a1.454,1.454,0,0,1-1.05-.373,1.453,1.453,0,0,1-.389-1.1,2.551,2.551,0,0,1,.714-1.861,2.235,2.235,0,0,1,1.642-.73,1.486,1.486,0,0,1,1.322.533l-.523,2.421A1.976,1.976,0,0,1-214.671-32.649Zm11.187-.682a2.709,2.709,0,0,1-.784.549,2.264,2.264,0,0,1-.88.155,1.677,1.677,0,0,1-1.189-.421,1.5,1.5,0,0,1-.453-1.157,2.529,2.529,0,0,1,.667-1.786,2.132,2.132,0,0,1,1.626-.72,1.5,1.5,0,0,1,1.365.746l.693-.459a2,2,0,0,0-1.962-1.13,3.126,3.126,0,0,0-2.346.986,3.406,3.406,0,0,0-.949,2.458A2.185,2.185,0,0,0-207-32.425a2.493,2.493,0,0,0,1.76.64A3.188,3.188,0,0,0-204-32.015a3.059,3.059,0,0,0,1.066-.816Zm1.13-.693a2.093,2.093,0,0,0,.682,1.61,2.539,2.539,0,0,0,1.792.629,3.082,3.082,0,0,0,2.293-.976,3.465,3.465,0,0,0,.949-2.522,2.2,2.2,0,0,0-.651-1.626,2.346,2.346,0,0,0-1.728-.645,3.221,3.221,0,0,0-2.341.986A3.422,3.422,0,0,0-202.354-34.025Zm.906-.213a2.373,2.373,0,0,1,.725-1.76,2.226,2.226,0,0,1,1.589-.714,1.611,1.611,0,0,1,1.141.416,1.508,1.508,0,0,1,.448,1.162,2.482,2.482,0,0,1-.682,1.8,2.125,2.125,0,0,1-1.568.7,1.636,1.636,0,0,1-1.21-.443A1.579,1.579,0,0,1-201.448-34.238Zm13.607-1.322a3.009,3.009,0,0,0,.064-.587,1.278,1.278,0,0,0-.453-1.05,1.805,1.805,0,0,0-1.146-.347,2.417,2.417,0,0,0-1.877.864,1.311,1.311,0,0,0-1.429-.864,2.2,2.2,0,0,0-1.728.832l.139-.714h-.864l-1.056,5.545h.864l.715-3.7a2.55,2.55,0,0,1,.693-.778,1.644,1.644,0,0,1,1.024-.341.779.779,0,0,1,.7.309,1.078,1.078,0,0,1,.112.821l-.7,3.69h.864l.715-3.807a1.9,1.9,0,0,1,1.653-1.013.875.875,0,0,1,.645.219.772.772,0,0,1,.219.571,4.1,4.1,0,0,1-.053.629l-.672,3.4h.864Zm.181,5.812h.842l.533-2.655a1.2,1.2,0,0,0,.6.453,2.433,2.433,0,0,0,.906.165,3.042,3.042,0,0,0,2.271-1.018,3.669,3.669,0,0,0,.97-2.639,2.3,2.3,0,0,0-.5-1.5,1.913,1.913,0,0,0-1.573-.608,2.266,2.266,0,0,0-1.856.821l.117-.693h-.853Zm3.807-6.964a1.3,1.3,0,0,1,1.072.416,1.678,1.678,0,0,1,.336,1.088,2.568,2.568,0,0,1-.7,1.84,2.1,2.1,0,0,1-1.546.741,1.361,1.361,0,0,1-1.4-.8l.405-2.133a2.5,2.5,0,0,1,.768-.816A1.849,1.849,0,0,1-183.852-36.712Zm6.665,4.831h.81l1.088-5.545h-.821l-.064.341a2.123,2.123,0,0,0-1.514-.469,3.071,3.071,0,0,0-1.514.411,3.369,3.369,0,0,0-1.237,1.242,3.585,3.585,0,0,0-.5,1.888,2.275,2.275,0,0,0,.565,1.6,2.012,2.012,0,0,0,1.557.613,2.074,2.074,0,0,0,1.082-.283,2.215,2.215,0,0,0,.709-.624Zm-1.408-.768a1.454,1.454,0,0,1-1.05-.373,1.453,1.453,0,0,1-.389-1.1,2.551,2.551,0,0,1,.714-1.861,2.235,2.235,0,0,1,1.642-.73,1.486,1.486,0,0,1,1.322.533l-.523,2.421A1.976,1.976,0,0,1-178.595-32.649Zm3.626.768h.864l.672-3.668a2.391,2.391,0,0,1,.837-.826,2.163,2.163,0,0,1,1.136-.325.933.933,0,0,1,1.066,1.045,7.19,7.19,0,0,1-.1.864l-.608,2.911h.853l.618-2.986a5.236,5.236,0,0,0,.117-1,1.628,1.628,0,0,0-.459-1.237,1.78,1.78,0,0,0-1.28-.437,2.719,2.719,0,0,0-1.962.81l.128-.693h-.864Zm5.46,1.962a1.031,1.031,0,0,0,.779.277,1.605,1.605,0,0,0,1.114-.485,8.539,8.539,0,0,0,1.3-1.84l3.114-5.46h-.981l-2.367,4.212-1.29-4.212h-.96l1.653,5.289-.235.416a4.65,4.65,0,0,1-.672.944.827.827,0,0,1-.565.283.477.477,0,0,1-.352-.139Z" transform="translate(-11340.299 -5613.358)"/>
  </g>
</svg>
